PathFileType	4	(X/Y/Z)	0_coords_data.trc
DataRate	CameraRate	NumFrames	NumMarkers	Units	OrigDataRate	OrigDataStartFrame	OrigNumFrames
30.0	30.0	7	21	m	30.0	31	72
Frame#	Time	THUMB_TIP	THUMB_IP	THUMB_MCP	THUMB_CMC	INDEX_TIP	INDEX_DIP	INDEX_PIP	INDEX_MCP	MIDDLE_TIP	MIDDLE_DIP	MIDDLE_PIP	MIDDLE_MCP	RING_TIP	RING_DIP	RING_PIP	RING_MCP	PINKY_TIP	PINKY_DIP	PINKY_PIP	PINKY_MCP	WRIST
X1	Y1	Z1	X2	Y2	Z2	X3	Y3	Z3	X4	Y4	Z4	X5	Y5	Z5	X6	Y6	Z6	X7	Y7	Z7	X8	Y8	Z8	X9	Y9	Z9	X10	Y10	Z10	X11	Y11	Z11	X12	Y12	Z12	X13	Y13	Z13	X14	Y14	Z14	X15	Y15	Z15	X16	Y16	Z16	X17	Y17	Z17	X18	Y18	Z18	X19	Y19	Z19	X20	Y20	Z20	X21	Y21	Z21
30	1.0	-0.00475931978225708	-0.09596900177001953	0.989708984375	-0.0010552500486373899	-0.06836440277099609	0.9990960083007813	-0.012496199607849121	-0.050114498138427735	1.0233400268554687	-0.016389400482177734	-0.012226300239562988	1.04043994140625	-0.010892399787902832	-0.018588199615478515	1.0145700073242188	0.005297540187835693	-0.017297800064086915	1.0040399780273437	0.009774829864501953	-0.02053059959411621	0.978281005859375	-0.03496739959716797	-0.02494540023803711	0.9797030029296875	-0.002723400115966797	-0.003145679950714111	1.016030029296875	0.006003859996795654	0.000426831007003784	1.007530029296875	0.011883899688720704	0.003234770059585571	0.9776339721679688	-0.036383499145507814	0.001260040044784546	0.9752340087890625	-0.0052815799713134765	0.011642200469970703	1.0208699951171876	0.004268030166625977	0.01642690086364746	1.0167999877929688	0.015962900161743163	0.023187299728393555	0.9929210205078125	-0.030088600158691407	0.026320999145507812	0.9806740112304687	-0.009756569862365722	0.029044300079345702	1.0238200073242187	0.0038979299068450917	0.03353139877319336	1.0166599731445312	0.010479000091552735	0.04313159942626953	0.9979739990234375	-0.02518989944458008	0.04923880004882813	0.9904520263671875	-0.03987279891967774	0.013611100196838378	1.06172998046875
31	1.0333333333333334	-0.004822830200195313	-0.09559780120849609	0.989468994140625	-0.001238280057907104	-0.06805680084228516	0.998927001953125	-0.012678299903869629	-0.04972639846801758	1.0234600219726562	-0.016621500015258788	-0.012001099586486817	1.0403199462890624	-0.010919500350952148	-0.01853179931640625	1.013989990234375	0.005194509983062744	-0.017135099411010744	1.0036400146484374	0.009662469863891602	-0.02037220001220703	0.9783369750976563	-0.03505979919433594	-0.024634700775146484	0.9795989990234375	-0.002902940034866333	-0.002978929996490478	1.0157999877929687	0.005905020236968994	0.000615290999412536	1.0074199829101562	0.01167899990081787	0.003484669923782348	0.9773790283203125	-0.036583198547363284	0.001564610004425048	0.9751179809570313	-0.006781330108642578	0.011897199630737305	1.0218800048828125	0.004131199836730957	0.016635599136352538	1.0167899780273437	0.0159419002532959	0.02331089973449707	0.9930789794921875	-0.03021890068054199	0.026554000854492187	0.9806589965820313	-0.009779150009155274	0.02943370056152344	1.02375	0.003988490104675293	0.03380099868774414	1.016280029296875	0.010444000244140625	0.043403499603271486	0.99797998046875	-0.02507780075073242	0.04942819976806641	0.9902490234375	-0.03960229873657226	0.013575300216674805	1.0616700439453124
32	1.0666666666666667	-0.005021049976348877	-0.09544519805908203	0.9895170288085937	-0.001413159966468811	-0.06796920013427735	0.998947998046875	-0.012809900283813477	-0.049633800506591795	1.02352001953125	-0.01658639907836914	-0.011944299697875976	1.0403299560546875	-0.01102970027923584	-0.01836090087890625	1.0142899780273438	0.005062660217285156	-0.016953500747680664	1.0036599731445313	0.009510530471801757	-0.020205799102783202	0.9782589721679688	-0.0352067985534668	-0.024551599502563477	0.9796530151367188	-0.003052419900894165	-0.0028505098819732663	1.0160599975585938	0.005628310203552246	0.00083483201265335	1.007260009765625	0.011611499786376954	0.003548969984054565	0.97739697265625	-0.03666170120239258	0.001671030044555664	0.9752230224609375	-0.0073423199653625485	0.012262800216674804	1.0224000244140625	0.003969120025634766	0.016867700576782226	1.0171099853515626	0.01586079978942871	0.02341819953918457	0.9930469970703125	-0.03028070068359375	0.026663700103759767	0.9807119750976563	-0.0101181001663208	0.02947330093383789	1.0239199829101562	0.003850800037384033	0.033878700256347656	1.0162899780273438	0.010404899597167968	0.0434547004699707	0.997989013671875	-0.02513330078125	0.04956779861450195	0.990322021484375	-0.039999000549316405	0.014026599884033203	1.0616700439453124
33	1.1	-0.00535536003112793	-0.0955739974975586	0.9896840209960938	-0.00170169997215271	-0.06803019714355468	0.9990969848632812	-0.013006400108337403	-0.049565498352050784	1.0236099853515626	-0.016758699417114258	-0.011854399681091308	1.0403499755859376	-0.011182299613952637	-0.0183931999206543	1.0140999755859375	0.004869659900665283	-0.017093299865722656	1.0038800048828125	0.009172069549560546	-0.020457199096679687	0.9783350219726562	-0.03545330047607422	-0.02463599967956543	0.9798189697265625	-0.0032284998893737787	-0.002951760053634643	1.0159600219726563	0.005535729885101318	0.000742339015007019	1.00722998046875	0.011350700378417969	0.003383419990539551	0.97739599609375	-0.03688109970092773	0.001635089993476867	0.9752969970703125	-0.005903800010681152	0.011958200454711914	1.021239990234375	0.003912240028381348	0.016783000946044922	1.0169299926757813	0.015646900177001953	0.023400299072265623	0.992875	-0.030428199768066405	0.026616300582885742	0.9807039794921875	-0.01028090000152588	0.02990239906311035	1.0231900024414062	0.003688040018081665	0.03380270004272461	1.0166300048828125	0.010113200187683106	0.04344770050048828	0.9978099975585938	-0.025294300079345702	0.04955509948730469	0.9903250122070313	-0.039879199981689456	0.014015800476074218	1.06152001953125
34	1.1333333333333333	-0.005465819835662842	-0.09555860137939454	0.9896409912109375	-0.00179662001132965	-0.06803800201416016	0.9990579833984375	-0.013141200065612793	-0.04963740158081055	1.02352001953125	-0.016985599517822265	-0.011830699920654298	1.040219970703125	-0.011301799774169922	-0.01816080093383789	1.0145700073242188	0.004801509857177734	-0.017059900283813476	1.003489990234375	0.00902892017364502	-0.020378999710083008	0.978302978515625	-0.035573001861572265	-0.02455069923400879	0.9797869873046875	-0.003385050058364868	-0.00291739010810852	1.0159500122070313	0.0054643101692199705	0.0007896620035171501	1.0071300048828125	0.011276000022888184	0.00344116997718811	0.9773410034179687	-0.03696820068359375	0.0016621600389480592	0.9752440185546875	-0.006227970123291016	0.011915399551391601	1.021	0.003814680099487304	0.016824800491333006	1.016760009765625	0.01564840030670166	0.0234286003112793	0.992718017578125	-0.030601600646972656	0.02666889953613281	0.9807020263671875	-0.010373000144958497	0.03010930061340332	1.0233499755859374	0.003657690048217773	0.033771701812744144	1.0162000122070312	0.009989580154418946	0.043438800811767576	0.997780029296875	-0.025455799102783203	0.04958280181884766	0.9903189697265625	-0.040117599487304687	0.01400920009613037	1.0615400390625
35	1.1666666666666667	-0.005470349788665772	-0.09543309783935547	0.9894500122070312	-0.0018363300561904901	-0.06790840148925781	0.9988909912109375	-0.013122699737548827	-0.049677898406982425	1.0232100219726563	-0.01698349952697754	-0.011850600242614745	1.0401500244140625	-0.01122249984741211	-0.0179596004486084	1.0148599853515625	0.004840099811553955	-0.016912799835205078	1.0034400024414063	0.009123069763183594	-0.020324499130249023	0.978197998046875	-0.035476398468017575	-0.024559499740600586	0.9796170043945313	-0.0032348001003265382	-0.002815799951553344	1.01547998046875	0.005494420051574707	0.0007833529710769651	1.007239990234375	0.011226699829101563	0.00355908989906311	0.9772559814453124	-0.03702679824829101	0.001740010023117065	0.9752249755859375	-0.006829410076141357	0.012028400421142577	1.0215	0.003812740087509155	0.016795700073242187	1.0165599975585937	0.015520099639892579	0.023452600479125976	0.9927630004882813	-0.030633699417114257	0.026712699890136717	0.9806480102539062	-0.010134499549865722	0.02943050003051758	1.0233099975585938	0.00368789005279541	0.03388050079345703	1.0161300048828126	0.010013099670410155	0.043520999908447267	0.9977080078125	-0.025431800842285156	0.04964199829101563	0.9901790161132813	-0.03966519927978516	0.014031900405883788	1.0616300048828125
36	1.2	-0.00568593978881836	-0.09536799621582032	0.9891170043945312	-0.00197376000881195	-0.06781559753417969	0.9986530151367188	-0.013297300338745117	-0.04950460052490235	1.0231799926757812	-0.017080999374389647	-0.011803899765014648	1.040260009765625	-0.011315699577331542	-0.018162399291992187	1.0143099975585939	0.004828400135040283	-0.016947700500488282	1.0032100219726563	0.008994999885559083	-0.020360599517822264	0.9780549926757812	-0.03559980010986328	-0.024518699645996095	0.9795469970703125	-0.003355710029602051	-0.002873790025711059	1.01547998046875	0.005475940227508545	0.000793991982936859	1.0070800170898437	0.011217499732971191	0.0035370099544525142	0.9772210083007813	-0.03704259872436524	0.0017276099920272821	0.975093017578125	-0.006502530097961426	0.011990799903869628	1.0207899780273437	0.003791490077972412	0.016786399841308593	1.0166199951171875	0.015560500144958496	0.023396499633789064	0.9925880126953125	-0.030660200119018554	0.02668079948425293	0.9804940185546875	-0.010370400428771973	0.029797800064086916	1.023	0.0036010301113128663	0.033857700347900394	1.0159199829101562	0.010075799942016602	0.04345209884643555	0.9976069946289062	-0.025356800079345702	0.04956689834594727	0.989989990234375	-0.04012220001220703	0.01397480010986328	1.06122998046875
